<svg width="500" height="500" viewBox="0 0 500 500" fill="none" xmlns="http://www.w3.org/2000/svg">
<g clip-path="url(#clip0_420_63)">
<rect width="500" height="500" fill="white"/>
<path d="M511.503 833.647L513.025 830.759C520.097 817.279 523.407 807.466 522.96 801.324C522.826 790.134 517.375 776.356 506.604 759.988C510.4 753.323 512.05 748.221 511.556 744.679L502.524 717.393L503.035 709.958C507.466 696.248 509.882 686.808 510.285 681.635C511.072 677.972 510.814 670.306 509.511 658.638L487.468 553.592L476.76 482.327C472.675 469.232 467.279 460.566 460.571 456.324C455.821 452.491 450.621 449.1 444.975 446.151C417.93 433.575 398.224 423.792 385.854 416.805L386.89 420.705C276.338 415.052 205.004 412.51 172.893 413.078C127.471 413.167 95.7695 416.281 77.7843 422.42C68.3145 425.472 60.7372 429.222 55.0542 433.665C46.6152 440.398 39.9687 448.459 35.111 457.846C29.4917 460.501 14.1462 511.927 -10.9273 612.126C-18.3991 644.569 -18.5991 668.695 -11.529 684.505C-30.7122 709.523 -42.2418 730.653 -46.1159 747.895C-49.5792 768.959 -42.8672 793.764 -25.9801 822.308L-5.95329 833.128C5.78172 834.897 14.957 835.412 21.5726 834.674C30.7479 835.19 42.123 827.483 55.7014 811.553L50.702 832.103L511.503 833.647Z" fill="black"/>
<path d="M220.23 496.847L217.345 499.007C198.921 515.218 179.411 515.365 158.815 499.45C151.188 494.529 139.934 485.967 125.049 473.768C99.9599 438.35 88.3414 419.536 90.1904 417.325C89.9244 415.215 90.1776 413.607 90.95 412.5C93.4985 410.415 96.3749 406.103 99.5828 399.565L101.827 397.337L113.895 394.926L120.315 388.19C122.612 387.523 126.574 387.871 132.199 389.231C129.002 371.444 127.988 357.463 129.152 347.289C129.824 337.344 133.597 321.147 140.47 298.696C119.226 245.026 110.165 199.538 113.289 162.23C114.387 143.401 119.464 125.71 128.516 109.156C132.249 100.233 143.255 88.5917 161.535 74.2315C164.034 71.7622 172.629 67.1351 187.317 60.3447C193.27 57.9756 199.205 56.1619 205.123 54.9036C217.05 52.3087 228.131 52.367 238.363 55.0766C255.958 57.0324 278.609 78.9533 306.312 120.838C324.833 145.621 337.91 170.523 345.543 195.543C349.975 208.884 355.068 233.756 360.823 270.163C372.529 290.254 378.899 303.034 379.928 308.498C380.899 313.14 381.187 315.693 380.79 316.161L375.985 330.727C375.524 335.775 375.556 339.235 376.081 341.107C374.724 339.653 379.222 354.473 389.576 385.566C392.953 398.425 394.616 406.112 394.567 408.621C395.321 421.017 395.09 428.178 393.873 430.105C391.614 438.826 387.058 446.476 380.207 453.057C373.356 459.638 365.128 465.579 355.522 470.879L304.132 497.652C285.07 507.522 270.53 512.288 260.505 511.949C250.256 512.57 236.831 507.537 220.23 496.847Z" fill="#E2C6AB"/>
<path d="M129.794 251L127.621 240.84C122.92 220.306 119.825 200.736 118.333 182.13C117.489 169.814 118.248 158.464 120.615 148.078C124.318 134.712 129.944 124.377 137.495 117.073C142.567 111.789 148.207 107.404 154.413 103.916C161.692 100.161 167.038 97.9447 170.446 97.2699C180.407 94.3175 190.813 94.2452 201.667 97.0528C213.988 100.821 224.959 107.404 234.584 116.802C243.212 124.422 252.034 136.202 261.045 152.142C267.576 164.438 273.894 180.511 280 200.363L129.794 251Z" fill="white"/>
<path d="M247.55 359.537L246.769 360.616C241.947 367.327 235.721 371.683 228.09 373.683C217.461 377.168 207.993 377.907 199.682 375.9C197.219 375.074 195.064 373.956 193.218 372.544C190.493 370.381 188.03 367.969 185.825 365.311C176.489 358.911 169.528 353.674 164.939 349.596C156.806 342.146 151.326 335.612 148.502 329.991C145.101 326.297 137.911 306.897 126.932 271.792C122.612 257.434 119.758 244.014 118.369 231.531C114.763 202.715 118.28 180.827 128.916 165.87C135.472 157.026 146.793 150.284 162.88 145.647C177.521 141.546 191.852 140.903 205.869 143.72C229.017 149.849 250.763 167.815 271.11 197.619C280.097 212.355 285.548 229.892 287.458 250.23L288 254.292C286.914 267.255 285.553 279.715 283.919 291.672C281.82 307.761 278.126 320.922 272.831 331.15C269.075 339.213 260.648 348.675 247.55 359.537Z" fill="#FFD8C2"/>
<path d="M219 223L220.188 221.45C222.565 218.27 224.948 215.451 227.337 212.988C228.134 212.195 228.933 211.479 229.732 210.846L230.934 209.969C231.613 209.473 232.538 208.998 233.708 208.543C235.211 207.944 237.121 207.841 239.439 208.232C240.577 208.461 241.717 208.799 242.858 209.244C244.571 209.93 246.284 210.707 248 211.577C245.674 214.03 243.73 215.832 242.17 216.983C240.572 218.107 239.572 218.747 239.171 218.907C238.452 219.294 237.691 219.645 236.886 219.964C236.08 220.28 235.231 220.562 234.337 220.81C233.932 220.968 232.515 221.279 230.085 221.743C227.618 222.179 223.924 222.598 219 223Z" fill="white"/>
<path d="M232.723 221L232.392 220.862C230.921 220.319 229.886 219.545 229.289 218.54C228.727 217.692 228.299 215.8 228 212.868C229.802 210.93 231.287 209.712 232.456 209.213C233.476 208.652 235.424 208.247 238.307 208C240.497 209.202 241.823 210.331 242.285 211.391C242.518 211.745 242.719 212.47 242.891 213.563C242.996 214.358 243.025 215.555 242.979 217.156L237.479 219.669L232.723 221Z" fill="#959595"/>
<path d="M208 199L209.33 197.865C211.964 195.547 214.712 193.454 217.57 191.586C218.532 190.981 219.519 190.424 220.53 189.92L222.07 189.208C222.962 188.802 224.189 188.386 225.748 187.959C227.457 187.562 228.773 187.328 229.695 187.253L231.412 187.1C232.569 187.025 233.749 186.992 234.95 187.002C237.94 187.004 242.29 187.334 248 187.994C238.692 188.902 231.659 190.034 226.902 191.385C222.42 192.536 216.119 195.073 208 199Z" fill="black"/>
<path d="M173 237.165L171.318 236.542C167.923 235.233 164.671 234.222 161.565 233.51C160.54 233.297 159.546 233.148 158.586 233.066L157.174 233.005C156.377 232.973 155.374 233.091 154.164 233.359C152.608 233.695 150.904 234.663 149.05 236.263C148.156 237.08 147.305 237.985 146.499 238.982C145.297 240.49 144.13 242.076 143 243.737C146.049 244.477 148.493 244.89 150.333 244.979C152.19 245.022 153.328 244.999 153.743 244.91C154.53 244.833 155.34 244.703 156.173 244.522C157.006 244.339 157.864 244.102 158.743 243.816C159.161 243.721 160.524 243.196 162.832 242.241C165.161 241.239 168.548 239.547 173 237.165Z" fill="white"/>
<path d="M163.066 242.965L163.298 242.681C164.359 241.483 164.922 240.314 164.986 239.176C165.092 238.187 164.591 236.4 163.485 233.818C160.965 233.129 159.066 232.875 157.785 233.057C156.611 233.111 154.676 233.769 151.981 235.031C150.583 237.141 149.926 238.754 150.007 239.867C149.967 240.28 150.125 240.982 150.483 241.977C150.762 242.69 151.295 243.698 152.085 245L158.186 244.283L163.066 242.965Z" fill="#959595"/>
<path d="M170 210.894L168.384 210.682C165.152 210.202 161.917 209.976 158.679 210.002C157.598 210.028 156.519 210.113 155.438 210.253L153.816 210.515C152.88 210.673 151.652 211.008 150.132 211.519C148.495 212.143 147.265 212.681 146.442 213.134L144.9 213.966C143.873 214.55 142.843 215.181 141.816 215.861C139.243 217.538 135.637 220.25 131 224C139.386 219.559 145.909 216.575 150.566 215.052C154.902 213.514 161.38 212.128 170 210.894Z" fill="black"/>
<path d="M178 314.375L179.513 313.25C184.08 309.462 189.451 306.102 195.627 303.172C197.788 302.646 199.519 302.384 200.82 302.39C203.774 302.646 205.748 302.971 206.741 303.362C209.137 300.513 213.269 298.437 219.139 297.131C223.98 296.035 234.933 294.659 252 293C246.203 301.642 239.856 311.787 232.957 323.433C231.26 325.78 229.185 327.971 226.733 330.007C221.916 333.199 217.727 335.053 214.165 335.566C211.757 335.996 209.565 336.106 207.593 335.898C205.528 335.662 203.853 335.317 202.566 334.859C199.205 333.735 195.691 331.686 192.024 328.713C186.406 323.763 181.731 318.984 178 314.375Z" fill="#FF4800" fill-opacity="0.152941"/>
<path d="M184 313.886L186.016 313.618C196.278 312.341 204.306 310.895 210.1 309.28C212.193 308.686 214.228 308.048 216.204 307.366C223.113 304.876 228.436 303.017 232.173 301.787C234.478 301.01 239.42 299.414 247 297C237.918 308.768 231.371 316.113 227.363 319.032C224.56 321.274 222.016 322.862 219.729 323.798C217.301 324.836 214.903 325.506 212.533 325.805C207.44 326.347 202.84 325.757 198.728 324.039C194.028 322.1 189.121 318.715 184 313.886Z" fill="white"/>
<path d="M180 287.27L197.509 295L216 274L196.632 290.488L180 287.27Z" fill="#FF4800" fill-opacity="0.160784"/>
<path d="M-0.529673 668.977L-88 471.851L-81.4023 461L-25.1683 462.566L110 767.425L45.6145 772L-0.529673 668.977Z" fill="#FFEB3B"/>
<path d="M-82 467.251L-78.5529 463L-25.9991 463.898L109 765.876L101.255 766L-32.5128 471.619L-82 467.251Z" fill="white"/>
<path d="M234 209C230 210.2 220.667 220.667 219.5 222.5C220.167 220.167 227.8 208.6 233 207C238.2 205.4 248.5 206.667 252.5 208L248 211.5C245 209.833 238 207.8 234 209Z" fill="black"/>
<path d="M154.305 234.514C158.325 233.382 171.815 237.21 173.783 238.132C171.969 236.52 159.323 230.851 154.076 232.29C148.829 233.728 140.815 240.321 138.154 243.592L143.829 244.132C145.468 241.117 150.285 235.646 154.305 234.514Z" fill="black"/>
<path d="M282.483 101C287.352 129.313 290.839 151.053 292.943 166.219C294.964 181.312 296.087 190.281 296.308 193.128C296.94 198.998 297.476 204.779 297.916 210.466C298.349 216.15 298.685 221.743 298.926 227.243L299.228 235.44C299.383 240.862 299.471 246.218 299.487 251.509C299.562 264.769 299.129 282.82 298.185 305.668C301.851 280.053 304.123 260.132 304.997 245.907C305.373 240.217 305.614 234.528 305.72 228.84L305.749 220.307L305.525 211.775L305.019 203.246C304.576 197.56 303.948 191.876 303.131 186.192L301.792 177.665C300.815 171.981 299.703 166.299 298.453 160.617C294.569 143.572 290.072 126.529 284.964 109.49L282.487 101H282.483ZM326.308 176.287L325.442 185.491C323.749 204.245 321.814 222.049 319.638 238.905C317.689 252.417 316.451 260.252 315.923 262.406C315.007 267.281 314.021 271.867 312.96 276.162C311.893 280.439 310.755 284.428 309.542 288.124C309.006 290.258 307.055 295.283 303.685 303.201C300.252 310.867 295.033 319.978 288.029 330.53C296.624 321.382 302.916 313.22 306.904 306.043C310.782 298.573 312.991 293.773 313.528 291.643C314.847 288.04 316.041 284.102 317.108 279.825C318.168 275.529 319.101 270.895 319.909 265.925L321.04 258.264C321.737 253.002 322.344 247.496 322.857 241.745C324.185 227.502 325.336 205.682 326.313 176.287H326.308ZM148.059 331.144C151.851 341.875 154.904 349.583 157.213 354.268C159.551 358.778 160.985 361.29 161.515 361.804C162.51 363.233 163.537 364.454 164.597 365.472C165.66 366.477 166.754 367.278 167.881 367.872L169.591 368.636C170.746 369.053 171.924 369.321 173.128 369.439C173.678 369.507 174.277 369.541 174.922 369.541C177.779 369.541 181.553 368.873 186.248 367.539C180.912 366.932 176.82 366.055 173.972 364.902C171.14 363.639 169.458 362.756 168.928 362.255C167.828 361.509 166.749 360.633 165.687 359.626C160.923 355 155.516 346.434 149.462 333.928L148.06 331.144H148.059ZM351.995 272.608L349.72 277.411C340.268 298.594 329.669 315.301 317.923 327.53C307.852 338.572 287.635 352.742 257.272 370.04C275.161 362.474 288.453 356.112 297.141 350.956C305.658 345.665 310.577 342.346 311.902 340.999C314.942 338.603 317.781 336.054 320.418 333.351C323.044 330.64 325.468 327.774 327.691 324.755C329.001 323.395 331.975 318.592 336.617 310.345C341.083 301.972 346.211 289.393 352 272.608H351.995ZM177.958 403.398C194.083 413.754 206.527 421.073 215.288 425.353C218.798 427.101 222.285 428.676 225.749 430.08L230.924 432.024C234.36 433.222 237.763 434.183 241.136 434.91C244.506 435.62 247.845 436.095 251.152 436.332L256.093 436.543C256.409 436.546 256.724 436.548 257.04 436.548C259.999 436.548 262.94 436.408 265.861 436.126C273.956 435.434 285.107 433.14 299.317 429.246H299.313C284.595 431.219 273.099 432.217 264.829 432.237C264.387 432.242 263.943 432.244 263.501 432.244C260.635 432.244 257.759 432.15 254.877 431.962L249.873 431.516C246.532 431.15 243.176 430.609 239.804 429.896C236.432 429.173 233.045 428.277 229.643 427.208C227.957 426.842 222.827 424.927 214.254 421.464C203.935 416.929 193.566 411.828 183.148 406.162L177.96 403.398H177.958ZM136 398.102C150.097 433.555 161.752 456.324 170.967 466.409C173.223 469.094 175.552 471.525 177.952 473.704C179.083 475.04 182.812 477.853 189.14 482.144C195.53 486.217 204.877 490.501 217.181 495C199.163 482.359 185.643 470.436 176.621 459.233C166.473 447.028 154.06 428.521 139.381 403.711L136 398.102Z" fill="black" fill-opacity="0.14902"/>
<ellipse cx="158.5" cy="239" rx="4.5" ry="4" fill="black"/>
<ellipse cx="237" cy="213.5" rx="4" ry="3.5" fill="black"/>
<ellipse cx="161.5" cy="238" rx="1.5" ry="1" fill="white"/>
<ellipse cx="239.5" cy="212" rx="1.5" ry="1" fill="white"/>
</g>
<defs>
<clipPath id="clip0_420_63">
<rect width="500" height="500" fill="white"/>
</clipPath>
</defs>
</svg>
