<svg width="500" height="500" viewBox="0 0 500 500" fill="none" xmlns="http://www.w3.org/2000/svg">
<g clip-path="url(#clip0_420_87)">
<rect width="500" height="500" fill="white"/>
<path d="M81.715 950.573L79.3059 947.922C68.0925 935.54 61.8838 926.022 60.6769 919.374C57.7549 907.449 59.7768 891.317 66.7483 870.974C60.8855 864.933 57.7325 859.965 57.2881 856.067L59.4185 824.601L56.8387 816.843C48.3717 803.492 43.2163 794.125 41.3701 788.74C39.5293 785.064 37.704 776.849 35.8941 764.096L30.5607 646.449L22.4264 567.8C23.1835 552.768 26.548 542.082 32.5201 535.736C36.522 530.361 41.1224 525.333 46.3195 520.651C71.6349 499.874 89.9128 484.078 101.153 473.263L101.12 477.69C217.14 441.371 292.304 419.111 326.609 410.909C374.938 398.549 409.505 393.165 430.313 394.755C441.22 395.401 450.305 397.307 457.566 400.47C468.385 405.309 477.661 412.05 485.398 420.691C492.102 421.97 522.508 472.399 576.62 571.976C593.454 604.395 600.275 629.972 597.087 648.706C624.341 670.027 642.39 689.313 651.233 706.57C660.687 727.999 660.343 756.191 650.204 791.148L631.87 808.135C619.875 813.232 610.258 816.295 603.02 817.324C593.404 820.389 579.196 815.319 560.392 802.119L571.338 822.58L81.715 950.573Z" fill="black"/>
<path d="M299.487 512.164L303.148 513.669C327.188 525.852 347.978 520.659 365.52 498.089C372.283 490.765 381.905 478.575 394.392 461.523C411.367 416.984 418.566 393.793 415.993 391.95C415.698 389.633 414.988 387.993 413.863 387.027C410.58 385.509 406.339 381.713 401.135 375.642L398.137 373.887L384.64 374.633L375.966 369.232C373.34 369.153 369.222 370.609 363.612 373.598C362.136 353.809 359.382 338.665 355.355 328.167C351.913 317.777 343.46 301.59 329.995 279.603C337.877 216.713 335.043 165.862 321.492 127.05C315.162 107.331 304.912 89.9136 290.747 74.7941C284.331 66.3304 269.433 56.9706 246.054 46.7149C242.719 44.7748 232.309 42.2119 214.826 39.0197C207.845 38.1333 201.035 37.8324 194.396 38.1175C181 38.629 169.23 41.7297 159.09 47.4167C140.912 54.3214 122.832 83.8405 104.849 135.972C91.9457 167.402 84.8636 197.466 83.6049 226.162C82.5484 241.562 83.9501 269.405 87.8106 309.693C80.8684 334.265 77.5966 349.6 78.0001 355.693C78.2399 360.894 78.6337 363.688 79.1844 364.076L88.2887 378.246C90.1627 383.487 91.0763 387.175 91.0316 389.309C92.0766 387.392 91.3557 404.382 88.8673 440.281C88.8008 454.881 89.1391 463.509 89.8794 466.164C92.4755 479.55 94.6849 487.102 96.5073 488.817C101.301 497.47 108.243 504.354 117.334 509.473C126.425 514.591 136.806 518.653 148.475 521.653L210.472 536.028C233.452 541.294 250.223 542.374 260.792 539.265C271.862 537.115 284.761 528.081 299.487 512.164Z" fill="#323232"/>
<path d="M263.87 375C255.221 375.055 237.977 371.046 231.08 365.526L188.532 331.867C180.206 322.891 179.868 321.254 173.403 305.424C168.52 293.68 163.796 281.349 159.231 268.429L158.741 264.139C155.427 242.876 156.619 223.499 162.313 206.006C176.139 170.03 180.34 158.382 180.34 158.382C180.34 158.382 233.067 122.78 263.87 123.304C282.215 123.616 318.572 148.839 318.572 148.839C318.572 148.839 330.099 168.285 333.836 198.658C335.639 211.768 329.47 220.418 328.645 236.244C327.82 252.069 333.689 257.121 333.075 272.74C332.168 295.801 315.924 320.843 309.224 330.672C309.224 330.672 300.983 349.876 289.5 359C277.855 368.253 272.52 374.945 263.87 375Z" fill="#F5CCA6"/>
<path d="M228.257 220.344L226.436 219C222.77 216.223 219.2 213.843 215.724 211.857C214.572 211.227 213.44 210.681 212.331 210.226L210.684 209.624C209.754 209.283 208.544 209.039 207.054 208.891C205.135 208.684 202.884 209.144 200.297 210.268C199.038 210.861 197.808 211.574 196.606 212.405C194.807 213.671 193.034 215.039 191.283 216.508C194.683 218.503 197.455 219.896 199.596 220.692C201.774 221.445 203.118 221.848 203.63 221.903C204.576 222.112 205.561 222.269 206.587 222.379C207.615 222.483 208.683 222.537 209.793 222.541C210.309 222.593 212.046 222.51 215.004 222.29C217.998 222.029 222.415 221.38 228.257 220.344Z" fill="white"/>
<path d="M273.653 218.846L275.502 217.67C279.234 215.232 282.827 213.179 286.282 211.506C287.423 210.978 288.536 210.533 289.615 210.176L291.208 209.717C292.108 209.458 293.253 209.317 294.643 209.294C296.435 209.248 298.446 209.887 300.68 211.209C301.762 211.898 302.801 212.703 303.799 213.622C305.29 215.019 306.744 216.514 308.164 218.108C304.778 219.796 302.048 220.943 299.975 221.551C297.874 222.115 296.585 222.402 296.107 222.414C295.21 222.542 294.283 222.616 293.325 222.639C292.366 222.658 291.377 222.623 290.355 222.536C289.873 222.544 288.286 222.319 285.593 221.859C282.873 221.354 278.893 220.35 273.653 218.846Z" fill="white"/>
<path d="M211.409 222.623L211.712 222.381C213.074 221.382 213.92 220.242 214.247 218.96C214.584 217.863 214.784 214.356 214.247 211C211.828 209.315 209.64 209.628 208.29 209.382C207.075 209.027 204.945 209.093 201.897 209.585C199.981 211.512 198.936 213.126 198.765 214.433C198.627 214.89 198.627 215.754 198.764 217.021C198.886 217.937 199.2 219.283 199.709 221.059C199.709 221.059 203.177 222.317 205.5 222.623C207.788 222.924 211.409 222.623 211.409 222.623Z" fill="black"/>
<path d="M287.486 221.962L287.212 221.688C285.968 220.545 285.253 219.318 285.07 218.008C284.857 216.88 285.205 214.677 286.109 211.402C288.699 209.994 290.68 209.243 292.049 209.147C293.296 208.929 295.405 209.229 298.381 210.055C300.072 212.182 300.932 213.901 300.958 215.219C301.045 215.689 300.949 216.547 300.672 217.792C300.451 218.689 299.989 219.991 299.288 221.701C299.288 221.701 295.701 222.568 293.359 222.615C291.052 222.661 287.486 221.962 287.486 221.962Z" fill="black"/>
<path d="M192.064 216.667L186 214.259C186.735 214.42 188.867 214.452 191.513 213.296C194.821 211.852 197.577 208 205.295 208C214.273 208 222.047 215.225 227.393 219.692C227.98 220.154 228.519 220.594 229 221C228.492 220.602 227.956 220.163 227.393 219.692C221.254 214.863 209.784 207.595 202.538 210.407C194.6 213.489 193.718 215.704 192.064 216.667Z" fill="black"/>
<path d="M307.95 218.076L313.692 216.199C313.011 216.291 311.086 216.111 308.834 214.653C306.018 212.831 303.975 208.579 297.018 207.806C288.925 206.906 281.088 213.585 275.756 217.659C275.174 218.077 274.638 218.477 274.158 218.848C274.661 218.488 275.195 218.088 275.756 217.659C281.844 213.29 293.018 206.938 299.226 210.567C306.029 214.542 306.57 216.917 307.95 218.076Z" fill="black"/>
<path d="M229.163 191.195L227.439 190.369C224.007 188.66 220.514 187.22 216.964 186.046C215.775 185.675 214.573 185.362 213.36 185.11L211.527 184.787C210.467 184.606 209.048 184.507 207.272 184.487C205.344 184.54 203.879 184.656 202.877 184.83L201.007 185.141C199.753 185.38 198.488 185.67 197.212 186.01C194.027 186.833 189.483 188.374 183.579 190.634C193.739 189.031 201.537 188.286 206.97 188.398C212.055 188.374 219.453 189.305 229.163 191.195Z" fill="black"/>
<path d="M274.535 194.943L276.164 194.289C279.407 192.922 282.719 191.817 286.103 190.974C287.237 190.71 288.385 190.507 289.549 190.363L291.312 190.198C292.329 190.11 293.699 190.128 295.421 190.25C297.296 190.457 298.722 190.684 299.702 190.933L301.532 191.381C302.76 191.711 304.002 192.089 305.255 192.518C308.387 193.566 312.873 195.41 318.711 198.054C308.778 195.701 301.178 194.359 295.914 194.032C290.981 193.602 283.854 193.906 274.535 194.943Z" fill="black"/>
<path d="M287.143 308.248L282.85 308.347C278.127 306.988 275.524 305.561 269.536 305.013C267.532 305.115 265.954 305.29 264.806 305.54C262.243 306.253 260.557 306.819 259.752 307.238C257.118 306.019 253.09 305.584 247.667 305.932C243.191 306.208 232.38 309.1 218 306.619C224.773 308.363 233.108 315.253 241.318 320.788C243.243 321.845 245.474 322.739 248.01 323.47C252.845 324.43 256.883 324.724 260.123 324.348C262.329 324.143 264.285 323.792 265.989 323.294C267.771 322.762 269.188 322.241 270.242 321.727C273.007 320.428 275.739 318.554 278.44 316.109C282.504 312.131 284.684 311.667 287.143 308.248Z" fill="#B0595A"/>
<path d="M280.24 282.159C280.24 282.159 272.487 291.049 265.417 292.357C255.139 294.257 243.946 280.571 243.946 280.571C243.946 280.571 255.907 289.761 265.337 288.655C271.651 287.915 280.24 282.159 280.24 282.159Z" fill="#FF4800" fill-opacity="0.160784"/>
<path d="M581.268 635.049L619.973 401.204L609.992 391.454L550.744 408.509L490.998 770.125L560.583 757.379L581.268 635.049Z" fill="#FFEB3B"/>
<path d="M611.881 397.857L607.062 394.275L551.623 409.589L491.441 767.837L499.681 765.853L560.644 416.026L611.881 397.857Z" fill="white"/>
<path d="M124.529 108.706C127.125 140.17 129.385 164.261 131.311 180.977C133.306 197.592 134.573 207.444 135.119 210.535C136.058 216.954 137.076 223.253 138.168 229.426C139.268 235.593 140.446 241.637 141.699 247.557L143.627 256.362C144.95 262.174 146.327 267.898 147.761 273.533C151.32 287.665 156.733 306.756 164.005 330.811C153.081 304.557 145.201 283.979 140.37 269.081C138.409 263.129 136.592 257.141 134.918 251.117L132.546 242.044L130.444 232.903L128.641 223.688C127.55 217.516 126.659 211.295 125.967 205.022L125.05 195.582C124.529 189.265 124.151 182.914 123.92 176.524C123.369 157.322 123.472 137.953 124.223 118.421L124.526 108.707L124.529 108.706ZM98.6245 200.831L102.07 210.388C109.015 229.882 115.956 248.299 122.892 265.64C128.671 279.486 132.136 287.484 133.288 289.632C135.598 294.569 137.905 299.18 140.211 303.46C142.518 307.718 144.822 311.652 147.125 315.253C148.279 317.377 151.731 322.19 157.484 329.693C163.235 336.911 171.28 345.176 181.617 354.487C169.974 347.106 161.05 340.144 154.844 333.599C148.674 326.712 145.01 322.209 143.855 320.09C141.465 316.617 139.115 312.753 136.808 308.494C134.504 304.212 132.24 299.537 130.019 294.469L126.715 286.626C124.53 281.217 122.375 275.525 120.252 269.545C114.932 254.751 107.722 231.846 98.6187 200.833L98.6245 200.831ZM330.5 316.796C329.415 329.254 328.287 338.294 327.119 343.912C325.872 349.352 325.038 352.418 324.616 353.11C323.95 354.903 323.195 356.485 322.348 357.858C321.494 359.219 320.552 360.371 319.517 361.311L317.91 362.593C316.798 363.353 315.619 363.961 314.373 364.417C313.807 364.639 313.18 364.84 312.495 365.017C309.459 365.799 305.266 366.122 299.911 365.988C305.415 363.881 309.521 361.826 312.231 359.82C314.893 357.699 316.438 356.299 316.864 355.621C317.827 354.525 318.734 353.298 319.585 351.935C323.378 345.707 326.773 335.11 329.773 320.143L330.498 316.796L330.5 316.796ZM97.7624 310.371L101.497 314.859C117.351 334.813 133.197 349.687 149.032 359.484C162.762 368.476 188.131 378.017 225.137 388.107C204.053 384.956 188.186 381.827 177.54 378.72C167.04 375.423 160.902 373.239 159.125 372.168C155.238 370.451 151.523 368.516 147.978 366.362C144.445 364.196 141.083 361.81 137.893 359.207C136.128 358.118 131.65 353.822 124.455 346.317C117.412 338.63 108.513 326.648 97.7566 310.373L97.7624 310.371ZM318.559 401.878C304.268 417.316 293.054 428.514 284.92 435.469C281.671 438.29 278.398 440.921 275.103 443.364L270.138 446.851C266.816 449.067 263.464 451.023 260.08 452.72C256.694 454.398 253.276 455.819 249.828 456.977L244.636 458.555C244.301 458.646 243.968 458.734 243.632 458.82C240.488 459.631 237.325 460.287 234.144 460.787C225.354 462.268 212.877 462.882 196.71 462.631L196.714 462.63C212.893 460.698 225.381 458.61 234.173 456.366C234.644 456.251 235.117 456.131 235.586 456.01C238.632 455.225 241.661 454.336 244.672 453.347L249.866 451.502C253.315 450.197 256.732 448.702 260.119 447.019C263.504 445.326 266.857 443.445 270.177 441.376C271.869 440.524 276.793 437.081 284.952 431.047C294.671 423.394 304.288 415.124 313.803 406.241L318.557 401.879L318.559 401.878ZM361.684 384.748C356.434 426.338 350.299 453.762 343.276 467.018C341.616 470.493 339.808 473.718 337.855 476.695C337.021 478.427 333.831 482.442 328.285 488.742C322.613 494.826 313.857 501.946 302.02 510.104C317.694 491.716 328.788 475.324 335.3 460.931C342.733 445.162 350.843 422.067 359.631 391.643L361.684 384.748Z" fill="black" fill-opacity="0.14902"/>
<path d="M260.337 311.529C250.465 311.705 228.616 308.309 218.925 306.589C225.942 308.873 242.343 313.708 251.808 314.778C261.272 315.849 277.866 311.389 284.979 309.025C280.878 309.786 270.208 311.353 260.337 311.529Z" fill="#8E3132"/>
<ellipse cx="209.5" cy="214.5" rx="2.5" ry="1.5" fill="white"/>
<ellipse cx="2.5" cy="1.5" rx="2.5" ry="1.5" transform="matrix(-0.993879 -0.110476 -0.110476 0.993879 292.931 212.885)" fill="white"/>
</g>
<defs>
<clipPath id="clip0_420_87">
<rect width="500" height="500" fill="white"/>
</clipPath>
</defs>
</svg>
