<svg width="500" height="500" viewBox="0 0 500 500" fill="none" xmlns="http://www.w3.org/2000/svg">
<g clip-path="url(#clip0_420_6)">
<rect width="500" height="500" fill="white"/>
<path d="M477.341 416.324C462.275 387.565 350.843 363.458 297.01 355C231.002 359.699 89.4 373.891 51.051 393.063C12.702 412.236 -10.9617 470.599 -18 497.384C27.4633 531.923 140.646 601 229.671 601C318.695 601 459.65 547.43 519 520.645C511.391 497.854 492.407 445.083 477.341 416.324Z" fill="#0F1935"/>
<path d="M331.424 352.66C327.701 335.081 334.791 287.544 338.801 265.973L310.669 278.131L278 359C279.007 368.787 293.07 388.236 293.18 401.091C293.318 417.161 313.13 437.916 313.13 437.916C313.13 437.916 313.751 414.885 315.631 408.522C320.207 416.316 340.368 430.365 349.265 431.958C347.025 430.764 341.27 425.657 336.174 414.786C329.803 401.197 336.078 374.633 331.424 352.66Z" fill="#0B0B0B"/>
<path d="M178.5 295.618V365.618C178.5 365.618 188.189 402.405 201 422.618C214.455 443.849 245.5 469.118 245.5 469.118C245.5 469.118 270.07 445.221 280 426.118C290.206 406.485 295.5 371.618 295.5 371.618C295.5 371.618 292.498 360.689 292 353.5C290.971 338.638 299 316 299 316L178.5 295.618Z" fill="#E9BE8E"/>
<path d="M247.397 375.618C206.966 375.618 177 302.05 177 299.618L304 305.192C304 305.192 287.828 375.618 247.397 375.618Z" fill="#DAA973"/>
<path d="M293.24 105.532C289.877 105.748 281.544 93.1961 268.892 90.9151L181.782 135.69L186.078 309C190.578 329.5 192.4 371.858 186.078 385.956C176.409 407.516 159.254 419.287 153.203 423.264C152.661 424.036 152.144 424.534 151.671 424.678C150.349 425.081 151.114 424.637 153.203 423.264C158.552 415.638 166.359 381.193 159.737 394.754C152.444 409.69 123.061 424.753 126.517 419.527C129.972 414.301 147.006 385.14 141.303 393.186C136.741 399.622 130.562 401.471 128.043 401.591C135.671 384.677 149.836 343.631 145.468 314.756C140.009 278.663 139.226 269.912 141.303 245.5C143.381 221.088 148.265 187.535 147.163 176.903C146.06 166.272 146.622 130.189 167.514 102.862C176.481 91.1328 216.517 51.8336 228.983 46.8727C241.448 41.9118 262.341 38.1697 283.551 42.4836C300.52 45.9348 306.172 63.6445 308.006 67.6477L313.942 68.6546C325.814 70.6685 330.902 81.6394 342.127 97.1471C353.353 112.655 352.855 136.197 356.65 150.571C360.445 164.944 349.061 192.579 351.52 210.853C353.488 225.472 342.998 255.959 337.508 269.376L329.842 225.5L329.842 141.264L293.24 105.532Z" fill="#0B0B0B"/>
<path d="M175.499 174.158C175.693 162.44 177.739 149.666 177.057 139.987C203.047 116.445 232.133 77.5459 284.004 94.4591C339.877 112.678 340.076 173.788 340.114 185.347L340.114 185.426C340.152 196.784 340.931 214.268 340.171 223.193C339.412 232.119 341.817 248.875 340.221 255.836C336.767 270.9 332.075 280.155 326.889 293.908C321.703 307.661 306.342 319.98 297.153 330.815C282.772 347.773 263.017 354.59 255.421 355.364C247.826 356.137 235.502 353.859 223.643 345.752C211.784 337.646 186.099 309.083 177.291 294.612C168.483 280.141 165.148 230.92 165.827 222.934C167.146 207.432 175.257 188.805 175.499 174.158Z" fill="#E9BE8E"/>
<path d="M320.337 185.343C314.553 182.587 294.238 183.235 284.804 183.903C283.295 185.023 280.864 187.963 283.211 190.771C286.143 194.28 306.586 189.235 317.591 190.254C326.396 191.069 331.821 194.295 333.433 195.806C331.478 193.467 326.121 188.099 320.337 185.343Z" fill="#0B0B0B"/>
<path d="M203.841 176.675C210.42 174.907 231.624 178.887 241.404 181.098C242.782 182.45 244.793 185.752 241.814 188.136C238.09 191.116 217.56 182.776 205.821 181.972C196.429 181.328 190.141 183.619 188.171 184.845C190.653 182.858 197.263 178.442 203.841 176.675Z" fill="#0B0B0B"/>
<path d="M224.587 201.46C233.847 202.649 237.29 210.059 240.951 212.876C234.6 214.507 230.031 218.963 220.566 218.158C214.026 217.601 204.35 210.095 203.299 207.166C206.393 204.756 215.327 200.271 224.587 201.46Z" fill="white"/>
<path d="M300.502 207.75C291.908 207.419 287.581 214.168 283.803 216.352C289.3 218.992 292.721 224.127 301.44 224.869C307.463 225.382 317.46 219.55 318.889 216.832C316.472 213.953 309.095 208.08 300.502 207.75Z" fill="white"/>
<ellipse cx="222.189" cy="209.263" rx="7" ry="8" transform="rotate(4.86387 222.189 209.263)" fill="#7F483A"/>
<ellipse cx="7" cy="8" rx="7" ry="8" transform="matrix(-0.996399 -0.0847886 -0.0847886 0.996399 307.484 209.326)" fill="#7F483A"/>
<ellipse cx="222.687" cy="209.306" rx="4.5" ry="5" transform="rotate(4.86387 222.687 209.306)" fill="black"/>
<ellipse cx="4.5" cy="5" rx="4.5" ry="5" transform="matrix(-0.996399 -0.0847886 -0.0847886 0.996399 304.24 212.061)" fill="black"/>
<path d="M241.909 213.405C238.142 210.5 233.271 202.745 223.74 201.52C217.671 200.74 203.157 207.523 203.157 207.523L207.236 212.005L194.475 204.716C201.118 205.281 206.33 201.693 211.784 200.503C218.601 199.015 224.002 198.441 229.585 200.983C236.009 203.91 237.063 209.202 241.909 213.405Z" fill="black"/>
<path d="M282.731 217.152C286.369 214.788 292.539 208.71 300.762 208.982C305.999 209.155 317.141 218.397 317.141 218.397L312.864 222.831L324.903 216.919C319.217 216.435 315.4 211.939 310.996 209.853C305.491 207.245 301.033 205.797 295.925 207.501C290.046 209.462 287.485 213.635 282.731 217.152Z" fill="black"/>
<path d="M217.742 291.971C217.148 291.794 217.098 291.595 217.291 291.441C217.432 291.612 217.583 291.788 217.742 291.971C218.798 292.286 221.569 292.531 227.741 292.331C239.803 291.939 239.084 291.142 245.974 290.102C251.977 289.195 256.422 291.936 257.749 292.049C260.608 291.82 260.947 290.46 265.955 290.886C273.399 291.52 281.97 296.945 288.945 297.539C285.745 303.725 272.776 315.175 260.404 314.501C244.939 313.657 238.656 310.271 234.875 307.586C231.963 305.519 221.869 296.707 217.742 291.971Z" fill="#F58080"/>
<path d="M218.802 292.84C218.35 292.706 217.948 292.582 217.604 292.469C217.982 292.587 218.383 292.71 218.802 292.84C223.267 294.157 232.529 296.339 236.824 296.699C244.888 297.375 255.148 297.369 256.331 297.464C257.513 297.558 264.71 299.042 266.335 299.172C269.489 299.424 281.774 299.22 281.774 299.22C281.774 299.22 270.488 302.039 264.043 301.122C256.073 299.989 244.611 299.494 241.622 299.243C239.359 299.054 226.155 295.106 218.802 292.84Z" fill="#D16A6A"/>
<path d="M217.604 292.469C221.342 293.696 232.094 296.303 236.824 296.699C244.888 297.375 255.148 297.369 256.331 297.464C257.513 297.558 264.71 299.042 266.335 299.172C269.489 299.424 281.774 299.22 281.774 299.22C281.774 299.22 270.488 302.039 264.043 301.122C256.073 299.989 244.611 299.494 241.622 299.243C239.23 299.043 224.614 294.644 217.604 292.469Z" stroke="#D16A6A" stroke-linecap="round"/>
<ellipse cx="170.367" cy="228.557" rx="15" ry="31" transform="rotate(-1.96065 170.367 228.557)" fill="#E9BE8E"/>
<ellipse cx="225.677" cy="209.56" rx="2.5" ry="1" transform="rotate(4.86387 225.677 209.56)" fill="white"/>
<ellipse cx="263.531" cy="307.24" rx="3.5" ry="1.5" transform="rotate(4.86387 263.531 307.24)" fill="white"/>
<ellipse cx="2" cy="1" rx="2" ry="1" transform="matrix(-0.996399 -0.0847886 -0.0847886 0.996399 303.986 215.05)" fill="white"/>
<ellipse cx="298.485" cy="226.625" rx="19.5" ry="4" transform="rotate(4.86387 298.485 226.625)" fill="#E9BE8E"/>
<ellipse cx="222.751" cy="220.351" rx="19.5" ry="4" transform="rotate(4.86387 222.751 220.351)" fill="#E9BE8E"/>
<path d="M261.69 275.801C259.503 275.947 253.388 274.297 246.422 266.524L259.452 272.619L272.328 268.728L261.69 275.801Z" fill="#AF8A61"/>
</g>
<defs>
<clipPath id="clip0_420_6">
<rect width="500" height="500" fill="white"/>
</clipPath>
</defs>
</svg>
